<?xml version="1.0" encoding="UTF-8" standalone="no"?>
<svg
   height="16"
   viewBox="0 0 16 16"
   width="16"
   version="1.1"
   id="svg2"
   sodipodi:docname="NNActionGroup.svg"
   inkscape:version="1.4 (86a8ad7, 2024-10-11)"
   xmlns:inkscape="http://www.inkscape.org/namespaces/inkscape"
   xmlns:sodipodi="http://sodipodi.sourceforge.net/DTD/sodipodi-0.dtd"
   xmlns="http://www.w3.org/2000/svg"
   xmlns:svg="http://www.w3.org/2000/svg">
  <defs
     id="defs2" />
  <sodipodi:namedview
     id="namedview2"
     pagecolor="#ffffff"
     bordercolor="#000000"
     borderopacity="0.25"
     inkscape:showpageshadow="2"
     inkscape:pageopacity="0.0"
     inkscape:pagecheckerboard="0"
     inkscape:deskcolor="#d1d1d1"
     inkscape:zoom="79.372736"
     inkscape:cx="5.2977889"
     inkscape:cy="10.05383"
     inkscape:window-width="3840"
     inkscape:window-height="2054"
     inkscape:window-x="-11"
     inkscape:window-y="-11"
     inkscape:window-maximized="1"
     inkscape:current-layer="svg2" />
  <path
     d="M 1.1428571,0 A 1.1428571,1.1428571 0 0 0 0,1.1428571 V 14.857143 A 1.1428571,1.1428571 0 0 0 1.1428571,16 H 14.857143 A 1.1428571,1.1428571 0 0 0 16,14.857143 V 1.1428571 A 1.1428571,1.1428571 0 0 0 14.857143,0 Z M 2.2857143,2.2857143 H 13.714286 V 13.714286 H 2.2857143 Z M 8,4.5714286"
     fill="#775599"
     id="path1"
     style="fill:#ef9f4c;fill-opacity:1;stroke-width:1.14286" />
  <path
     d="M4 12a1 1 0 0 0 1.555.832l6-4a1 1 0 0 0 0-1.664l-6-4A1 1 0 0 0 4 4z"
     fill="#775599"
     id="path2"
     style="fill:#ef9f4c;fill-opacity:1" />
</svg>
