<?xml version="1.0" encoding="UTF-8" standalone="no"?>
<svg
   height="16"
   viewBox="0 0 16 16"
   width="16"
   version="1.1"
   id="svg1"
   sodipodi:docname="NNBooleanConsideration.svg"
   inkscape:version="1.4 (86a8ad7, 2024-10-11)"
   xmlns:inkscape="http://www.inkscape.org/namespaces/inkscape"
   xmlns:sodipodi="http://sodipodi.sourceforge.net/DTD/sodipodi-0.dtd"
   xmlns="http://www.w3.org/2000/svg"
   xmlns:svg="http://www.w3.org/2000/svg">
  <defs
     id="defs1" />
  <sodipodi:namedview
     id="namedview1"
     pagecolor="#ffffff"
     bordercolor="#000000"
     borderopacity="0.25"
     inkscape:showpageshadow="2"
     inkscape:pageopacity="0.0"
     inkscape:pagecheckerboard="0"
     inkscape:deskcolor="#d1d1d1"
     inkscape:zoom="112.25"
     inkscape:cx="8.0044543"
     inkscape:cy="8"
     inkscape:window-width="3840"
     inkscape:window-height="2054"
     inkscape:window-x="-11"
     inkscape:window-y="-11"
     inkscape:window-maximized="1"
     inkscape:current-layer="svg1" />
  <path
     d="M2 0a2 2 0 0 0-2 2v2h2v2a3 3 0 0 1 2.5 1.346A3 3 0 0 1 9 6.768a3 3 0 0 1 4 0V4h2v5a1 1 0 0 0 1 1V2a2 2 0 0 0-2-2zm0 8v2a1 1 0 0 0 0-2zm5 0a1 1 0 0 0 0 2 1 1 0 0 0 0-2zm4 0a1 1 0 0 0 0 2 1 1 0 0 0 0-2zm-6.5 2.654A3 3 0 0 1 2 12H0v2a2 2 0 0 0 2 2h12a2 2 0 0 0 2-2v-2a3 3 0 0 1-2.5-1.346 3 3 0 0 1-4.5.578 3 3 0 0 1-4.5-.578z"
     fill="#775599"
     id="path1"
     style="fill:#ef9f4c;fill-opacity:1" />
</svg>
