<?xml version="1.0" encoding="UTF-8" standalone="no"?>
<svg
   height="16"
   viewBox="0 0 16 16"
   width="16"
   version="1.1"
   id="svg1"
   sodipodi:docname="NNBTRandomSequence.svg"
   inkscape:version="1.4 (86a8ad7, 2024-10-11)"
   xmlns:inkscape="http://www.inkscape.org/namespaces/inkscape"
   xmlns:sodipodi="http://sodipodi.sourceforge.net/DTD/sodipodi-0.dtd"
   xmlns="http://www.w3.org/2000/svg"
   xmlns:svg="http://www.w3.org/2000/svg">
  <defs
     id="defs1" />
  <sodipodi:namedview
     id="namedview1"
     pagecolor="#ffffff"
     bordercolor="#666666"
     borderopacity="1.0"
     inkscape:showpageshadow="2"
     inkscape:pageopacity="0.0"
     inkscape:pagecheckerboard="0"
     inkscape:deskcolor="#d1d1d1"
     showgrid="false"
     inkscape:zoom="50.8125"
     inkscape:cx="8"
     inkscape:cy="8.0098401"
     inkscape:window-width="3840"
     inkscape:window-height="2054"
     inkscape:window-x="-11"
     inkscape:window-y="-11"
     inkscape:window-maximized="1"
     inkscape:current-layer="svg1" />
  <path
     style="fill:#ef9f4c;stroke-width:0.0217338"
     d="M 2.6052937,12.467266 C 2.3375644,12.399235 2.1001508,12.235684 1.9520007,12.017217 1.880172,11.911295 0.09590515,7.8006802 0.03404074,7.5985974 -0.07872925,7.2302294 0.03061386,6.8018958 0.30830764,6.5242019 0.57967759,6.2528318 0.98157039,6.1372838 1.3344114,6.2291874 1.5958984,6.2972961 1.8335832,6.4611803 1.9724267,6.6691 2.0196109,6.7397599 2.2185368,7.1709618 2.4144834,7.6273272 2.6104298,8.0836924 2.7761556,8.4569581 2.7827631,8.4568065 2.7893754,8.4566547 3.1408423,7.5348703 3.5638113,6.4083964 3.9867805,5.2819227 4.3656419,4.2903726 4.4057258,4.2049518 4.6011232,3.7885499 5.0889309,3.5322974 5.5433471,3.6073426 c 0.281351,0.046464 0.5213799,0.1876882 0.7008978,0.4123821 0.055683,0.069697 0.3318017,0.6557242 0.8899719,1.8888606 0.4450827,0.9832978 0.8161037,1.7878142 0.8244914,1.7878142 0.00839,0 0.1849327,-0.3280503 0.3923222,-0.7290005 C 8.5611735,6.5611251 8.7715683,6.1834815 8.826287,6.1143475 8.9422517,5.9678329 9.1373484,5.8306051 9.329145,5.7606455 9.4627265,5.7119206 9.4956361,5.7099615 10.378608,5.6981837 l 0.911555,-0.01216 -0.182327,-0.1195358 C 10.875708,5.4143024 10.746319,5.2846058 10.654199,5.111773 10.558064,4.9314027 10.521714,4.7877559 10.521398,4.5869783 10.520929,4.2882369 10.635902,4.0209711 10.855665,3.8099447 11.002082,3.6693476 11.138192,3.5909934 11.33579,3.53355 c 0.172718,-0.05021 0.471046,-0.034568 0.651615,0.034166 0.0832,0.031669 0.75673,0.4673172 1.880237,1.2161553 1.361226,0.907282 1.774239,1.1929685 1.856869,1.2844194 0.140267,0.1552408 0.244424,0.3777854 0.275489,0.5886186 0.04519,0.306714 -0.06827,0.65972 -0.284507,0.885265 -0.06755,0.07046 -0.69955,0.5047337 -1.864675,1.2813116 -1.554691,1.0362305 -1.781199,1.1804471 -1.921234,1.2232491 -0.701204,0.21432 -1.406197,-0.2994392 -1.407986,-1.0260623 -10e-4,-0.4178 0.168862,-0.7104242 0.568439,-0.9790995 0.105488,-0.070926 0.191785,-0.1335942 0.191785,-0.1392627 0,-0.00566 -0.213611,-0.010304 -0.474693,-0.010304 H 10.332435 L 9.5788193,9.3431348 C 9.1399147,10.188272 8.7854676,10.844894 8.7300502,10.915501 8.4679641,11.249426 7.9661343,11.399268 7.5629847,11.263975 7.3191527,11.182149 7.1223047,11.036054 6.9936262,10.841417 6.9524819,10.779182 6.5981998,10.019199 6.2063323,9.1525636 5.8144648,8.2859287 5.4904831,7.5727885 5.4863731,7.5678079 c -0.00411,-0.00499 -0.012094,-0.00444 -0.017741,0.00122 C 5.462988,7.5746674 5.0956853,8.5420958 4.6524106,9.7188574 4.2091362,10.895619 3.8210648,11.901817 3.7900301,11.954854 3.5546146,12.357167 3.042937,12.578475 2.6052935,12.467269 Z"
     id="path2" />
</svg>
