<?xml version="1.0" encoding="UTF-8" standalone="no"?>
<svg
   height="12"
   viewBox="0 0 16 12"
   width="16"
   version="1.1"
   id="svg1"
   sodipodi:docname="NNBTNodeReference.svg"
   inkscape:version="1.4 (86a8ad7, 2024-10-11)"
   xmlns:inkscape="http://www.inkscape.org/namespaces/inkscape"
   xmlns:sodipodi="http://sodipodi.sourceforge.net/DTD/sodipodi-0.dtd"
   xmlns="http://www.w3.org/2000/svg"
   xmlns:svg="http://www.w3.org/2000/svg">
  <defs
     id="defs1" />
  <sodipodi:namedview
     id="namedview1"
     pagecolor="#ffffff"
     bordercolor="#000000"
     borderopacity="0.25"
     inkscape:showpageshadow="2"
     inkscape:pageopacity="0.0"
     inkscape:pagecheckerboard="0"
     inkscape:deskcolor="#d1d1d1"
     inkscape:zoom="149.66667"
     inkscape:cx="8.0011136"
     inkscape:cy="6"
     inkscape:window-width="3840"
     inkscape:window-height="2054"
     inkscape:window-x="-11"
     inkscape:window-y="-11"
     inkscape:window-maximized="1"
     inkscape:current-layer="svg1" />
  <path
     d="M0 2v8h2V8a3 3 0 0 0 0-6zm6 0v5a3 3 0 0 0 3 3h1V8H9a1 1 0 0 1-1-1V6h2V4H8V2zm5 0v8h2V6a1 1 0 0 1 1 1v3h2V7a3 3 0 0 0-3-3V2zM2 4a1 1 0 0 1 0 2z"
     fill="#775599"
     id="path1"
     style="fill:#ef9f4c;fill-opacity:1" />
</svg>
