<?xml version="1.0" encoding="UTF-8" standalone="no"?>
<svg
   height="16"
   viewBox="0 0 16 16"
   width="16"
   version="1.1"
   id="svg1"
   sodipodi:docname="NNBTRepeater.svg"
   inkscape:version="1.4 (86a8ad7, 2024-10-11)"
   xmlns:inkscape="http://www.inkscape.org/namespaces/inkscape"
   xmlns:sodipodi="http://sodipodi.sourceforge.net/DTD/sodipodi-0.dtd"
   xmlns="http://www.w3.org/2000/svg"
   xmlns:svg="http://www.w3.org/2000/svg">
  <defs
     id="defs1" />
  <sodipodi:namedview
     id="namedview1"
     pagecolor="#ffffff"
     bordercolor="#000000"
     borderopacity="0.25"
     inkscape:showpageshadow="2"
     inkscape:pageopacity="0.0"
     inkscape:pagecheckerboard="0"
     inkscape:deskcolor="#d1d1d1"
     inkscape:zoom="79.372736"
     inkscape:cx="5.6001597"
     inkscape:cy="8.7183589"
     inkscape:window-width="3840"
     inkscape:window-height="2054"
     inkscape:window-x="-11"
     inkscape:window-y="-11"
     inkscape:window-maximized="1"
     inkscape:current-layer="svg1" />
  <path
     style="fill:#ef9f4c;stroke-width:0.0101914"
     d="M 1.0495208,11.302099 C 0.59049686,10.65377 0.26757986,9.9060063 0.11215369,9.1314813 0.02813298,8.7127865 0.0049057,8.4677866 0.0049057,8.0002396 c 0,-0.4592857 0.02292538,-0.7070667 0.10277869,-1.1108591 C 0.58250444,4.4883897 2.5454754,2.6514704 4.9753679,2.3342747 5.3088525,2.290742 5.3283361,2.2901891 6.6827989,2.2858242 l 1.3172343,-0.00425 V 1.1407896 0 l 2.2777708,1.7083345 c 1.252774,0.939584 2.277771,1.7117756 2.277771,1.7159812 0,0.00421 -1.024997,0.7763973 -2.277771,1.7159813 L 8.0000332,6.8486315 V 5.7071903 4.5657488 l -1.256086,3.49e-5 C 5.9566346,4.5658056 5.4441216,4.5697737 5.3706604,4.5764167 4.7444068,4.6330474 4.1572295,4.8518271 3.6483194,5.2181534 3.3709752,5.4177928 3.1010281,5.6869026 2.8926031,5.9715259 2.7181581,6.2097465 2.5483053,6.5250145 2.4462633,6.7999884 2.245932,7.3398241 2.1846125,7.9290618 2.2683292,8.5098079 c 0.058161,0.4034631 0.2138753,0.8503713 0.4204081,1.2065916 0.028903,0.04985 0.05255,0.093429 0.05255,0.096843 0,0.00341 -0.3611565,0.3673305 -0.8025701,0.8087075 l -0.8025697,0.802501 z"
     id="path2" />
  <path
     style="fill:#ef9f4c;stroke-width:0.0101914"
     d="m 5.7225435,14.292352 c -1.2498167,-0.937371 -2.2738199,-1.70859 -2.2755628,-1.713818 -0.00174,-0.0053 1.0219809,-0.778373 2.2749418,-1.718097 L 8.0000332,9.1518477 v 1.1418343 1.141835 l 1.3274255,-0.0035 c 1.4596693,-0.0039 1.3749513,-4.76e-4 1.7096013,-0.06883 0.822049,-0.167908 1.569151,-0.649693 2.071715,-1.33599 0.225408,-0.3078149 0.415301,-0.6925245 0.520079,-1.0536468 0.105006,-0.3619098 0.146524,-0.6841474 0.136555,-1.0599021 -0.0084,-0.3130097 -0.04305,-0.5495496 -0.123892,-0.8435534 -0.06919,-0.2515857 -0.197397,-0.5567575 -0.330219,-0.78598 -0.02889,-0.04985 -0.05252,-0.093429 -0.05252,-0.096843 0,-0.00341 0.361157,-0.3673314 0.80257,-0.8087076 l 0.802571,-0.8024869 0.08662,0.1223522 c 0.459025,0.6483289 0.781941,1.396093 0.937367,2.170618 0.08521,0.4246643 0.107397,0.6629743 0.10671,1.1465287 -5.57e-4,0.3924902 -0.0103,0.5370891 -0.05623,0.8356921 -0.288485,1.8748658 -1.460516,3.4649578 -3.162994,4.2912228 -0.551355,0.267589 -1.157936,0.44851 -1.758721,0.524563 -0.340026,0.04305 -0.350472,0.04333 -1.6993669,0.04767 l -1.3171904,0.0042 -0.0026,1.138882 -0.0026,1.138882 z"
     id="path3" />
</svg>
