<?xml version="1.0" encoding="UTF-8" standalone="no"?>
<svg
   height="12"
   width="12"
   viewBox="0 0 12 12"
   version="1.1"
   id="svg1"
   sodipodi:docname="NNBTPassBy.svg"
   inkscape:version="1.4 (86a8ad7, 2024-10-11)"
   xmlns:inkscape="http://www.inkscape.org/namespaces/inkscape"
   xmlns:sodipodi="http://sodipodi.sourceforge.net/DTD/sodipodi-0.dtd"
   xmlns="http://www.w3.org/2000/svg"
   xmlns:svg="http://www.w3.org/2000/svg">
  <defs
     id="defs1" />
  <sodipodi:namedview
     id="namedview1"
     pagecolor="#ffffff"
     bordercolor="#000000"
     borderopacity="0.25"
     inkscape:showpageshadow="2"
     inkscape:pageopacity="0.0"
     inkscape:pagecheckerboard="0"
     inkscape:deskcolor="#d1d1d1"
     inkscape:zoom="149.66667"
     inkscape:cx="6.0033408"
     inkscape:cy="6"
     inkscape:window-width="3840"
     inkscape:window-height="2054"
     inkscape:window-x="-11"
     inkscape:window-y="-11"
     inkscape:window-maximized="1"
     inkscape:current-layer="svg1" />
  <path
     style="fill:#ef9f4c;stroke-width:0.0100398"
     d="M 3.5518268,11.994255 C 3.2223253,11.948121 2.9182969,11.795545 2.681976,11.557722 2.4847244,11.359217 2.3378138,11.086346 2.2808529,10.812678 2.2123803,10.483702 2.2541694,10.160866 2.4053522,9.8508741 2.5209834,9.613779 2.4297474,9.7105225 4.362922,7.7751373 L 6.1354369,6.0005957 4.362922,4.226054 C 2.4297474,2.2906689 2.5209834,2.3874124 2.4053522,2.1503173 c -0.2095106,-0.4295893 -0.2095106,-0.8856297 0,-1.31521898 0.1936036,-0.39697272 0.5474054,-0.68450594 0.97492,-0.79231328 0.437761,-0.11039066 0.8952213,-0.01882945 1.2644923,0.2530898 0.048225,0.0355116 0.9184124,0.89865946 2.4202602,2.40068196 2.5586294,2.5589269 2.4128632,2.4064476 2.5299155,2.6464294 0.065785,0.134873 0.093116,0.211203 0.1204973,0.3365252 0.073671,0.3371883 0.033585,0.6627425 -0.1205033,0.9786938 -0.117034,0.23997 0.028736,0.087486 -2.5299095,2.6464293 -1.5018478,1.5020225 -2.3720345,2.3651705 -2.4202602,2.4006825 -0.1755619,0.129278 -0.3648127,0.215819 -0.5778281,0.264229 -0.09852,0.02239 -0.1495252,0.02783 -0.285598,0.03045 -0.091112,0.0018 -0.1943917,-8.27e-4 -0.2295116,-0.0057 z"
     id="path2" />
</svg>
