<?xml version="1.0" encoding="UTF-8" standalone="no"?>
<svg
   height="16"
   viewBox="0 0 16 16"
   width="16"
   version="1.1"
   id="svg1"
   sodipodi:docname="NNBTCooldownTime.svg"
   inkscape:version="1.4 (86a8ad7, 2024-10-11)"
   xmlns:inkscape="http://www.inkscape.org/namespaces/inkscape"
   xmlns:sodipodi="http://sodipodi.sourceforge.net/DTD/sodipodi-0.dtd"
   xmlns="http://www.w3.org/2000/svg"
   xmlns:svg="http://www.w3.org/2000/svg">
  <defs
     id="defs1" />
  <sodipodi:namedview
     id="namedview1"
     pagecolor="#ffffff"
     bordercolor="#000000"
     borderopacity="0.25"
     inkscape:showpageshadow="2"
     inkscape:pageopacity="0.0"
     inkscape:pagecheckerboard="0"
     inkscape:deskcolor="#d1d1d1"
     inkscape:zoom="112.25"
     inkscape:cx="8.0044543"
     inkscape:cy="8"
     inkscape:window-width="3840"
     inkscape:window-height="2054"
     inkscape:window-x="-11"
     inkscape:window-y="-11"
     inkscape:window-maximized="1"
     inkscape:current-layer="svg1" />
  <path
     d="M7 1.5h2m-1 0v2.875m0-1.25a5.625 5.625 0 0 0 0 11.25v-1.25m0 1.25a5.625 5.625 0 0 0 0-11.25m5.375 5.625h-1m-9.875 0h1m4.5 0 2-2"
     stroke="#775599"
     fill="none"
     stroke-linecap="round"
     stroke-width="1.25"
     id="path1" />
  <circle
     cx="8"
     cy="8.75"
     r="1"
     fill="#775599"
     id="circle1"
     style="fill:#ef9f4c;fill-opacity:1" />
  <path
     style="fill:#ef9f4c;fill-opacity:1;stroke-width:0.00890869"
     d="M 8.9947268,8.6053241 C 8.9526053,8.3901872 8.8966599,8.2648012 8.7750557,8.1129922 8.6390122,7.9431575 8.4269326,7.8132931 8.2160441,7.7706882 8.1710695,7.7616021 8.1322509,7.752147 8.1297806,7.7496767 8.1273104,7.7472064 8.4589032,7.412326 8.8666535,7.0054979 9.3524287,6.5208216 9.6262747,6.2539828 9.6609736,6.2315029 c 0.250403,-0.1622246 0.5747474,-0.1251137 0.7844604,0.089756 0.105882,0.1084855 0.163802,0.2439452 0.171179,0.4003443 0.0055,0.1165985 -0.01177,0.1981442 -0.06511,0.3073496 l -0.04133,0.084632 -0.7555866,0.7567718 C 9.0875312,8.5384552 8.9984959,8.6245743 8.9947268,8.6053241 Z"
     id="path2" />
  <path
     style="fill:#ef9f4c;fill-opacity:1;stroke-width:0.00890869"
     d="M 7.6035635,14.983198 C 6.3171756,14.899217 5.0949424,14.424054 4.0890869,13.61689 2.7861594,12.571335 1.955211,11.041029 1.7865188,9.376392 1.6393998,7.9246377 2.0111305,6.4548963 2.8308805,5.247216 3.8168101,3.7947151 5.3608541,2.8258901 7.0957684,2.5711718 7.1790646,2.5589423 7.2762806,2.5461772 7.311804,2.5428048 l 0.064588,-0.00613 V 2.3292045 2.1217355 L 7.1291759,2.1185078 C 6.885706,2.115329 6.8808799,2.114904 6.8106904,2.0904602 6.4962855,1.9809675 6.3180166,1.6547927 6.4009445,1.3407572 6.4584893,1.1228439 6.6483822,0.94121629 6.8671432,0.89485052 c 0.08817,-0.0186874 2.1775436,-0.0186874 2.2657136,0 C 9.4539365,0.96290247 9.6724151,1.2924867 9.6087856,1.6128092 9.5936185,1.6891626 9.5527049,1.7881875 9.5107029,1.8502031 9.4419318,1.9517428 9.314856,2.0467382 9.1893096,2.0904602 9.1191201,2.114904 9.114294,2.115329 8.8708241,2.1185078 l -0.2472161,0.00323 v 0.207469 0.2074688 l 0.064588,0.00613 c 0.1050581,0.00997 0.3572697,0.048656 0.5055679,0.077541 1.8977911,0.3696435 3.5219911,1.6024663 4.3872271,3.3300556 0.358679,0.716163 0.565418,1.4480244 0.64315,2.27677 0.01965,0.2094895 0.02247,0.7926093 0.0048,0.9933185 -0.08916,1.0130843 -0.369451,1.8932213 -0.871204,2.7356793 -0.886971,1.489252 -2.376338,2.549882 -4.0829369,2.9076 -0.1446583,0.03032 -0.3999191,0.0721 -0.5175678,0.08472 -0.1215904,0.01304 -0.1336303,0.01589 -0.1336303,0.03164 0,0.01149 -0.058183,0.01303 -0.4521158,0.01191 -0.2486637,-7.04e-4 -0.5042316,-0.0047 -0.5679287,-0.0088 z M 7.3785924,13.36971 c 0.0041,-0.380656 0.00539,-0.390419 0.06875,-0.51893 0.062716,-0.127203 0.1547745,-0.219199 0.2809425,-0.280751 0.092102,-0.04493 0.1668081,-0.06197 0.2717149,-0.06197 0.1049068,0 0.1796133,0.01704 0.2717149,0.06197 0.126168,0.06155 0.2182262,0.153548 0.2809425,0.280751 0.063362,0.128511 0.064655,0.138274 0.06875,0.51893 l 0.00367,0.340758 h 0.024075 c 0.041525,0 0.2935686,-0.04371 0.4395773,-0.07623 0.7871561,-0.175316 1.5029975,-0.529894 2.1406735,-1.060337 0.148908,-0.123868 0.472253,-0.447207 0.596189,-0.596177 0.279509,-0.335969 0.48411,-0.652304 0.673667,-1.041563 0.179631,-0.368872 0.296935,-0.705157 0.38693,-1.1092403 0.03097,-0.1390582 0.07595,-0.3964643 0.07595,-0.4346339 v -0.020353 h -0.315474 c -0.234861,0 -0.33218,-0.00321 -0.380847,-0.012578 -0.221761,-0.042668 -0.395074,-0.1885082 -0.47089,-0.3962471 -0.125791,-0.3446766 0.06858,-0.7164789 0.425113,-0.813198 0.06344,-0.017209 0.09887,-0.019211 0.406701,-0.022983 l 0.33721,-0.00413 -0.0061,-0.050264 C 12.945464,7.9694719 12.907094,7.7595457 12.876244,7.6258352 12.587372,6.3737868 11.827335,5.2791969 10.757238,4.5740842 10.129701,4.1605846 9.397224,3.8855356 8.671109,3.7907317 l -0.04604,-0.00601 -0.00383,0.3459471 C 8.6170085,4.5133904 8.6155834,4.5246175 8.5557149,4.6468975 8.4767824,4.8081153 8.328972,4.9286065 8.1514477,4.9764454 8.0737617,4.9973801 7.926408,4.9974069 7.8485523,4.9765005 7.672417,4.9292032 7.5227645,4.8071901 7.4442851,4.6468975 7.384432,4.5246488 7.382991,4.5133118 7.3787629,4.1314031 c -0.00283,-0.2552928 -0.00653,-0.345187 -0.014232,-0.3451172 -0.00573,5.19e-5 -0.062526,0.00808 -0.1262233,0.01784 C 5.5340978,4.0652614 4.0751483,5.1962997 3.4002988,6.77951 3.2242382,7.1925515 3.0896171,7.6784779 3.0421351,8.0723327 l -0.00604,0.050061 0.2748231,0.00464 c 0.2407956,0.00407 0.2834275,0.00694 0.3443152,0.023186 0.1684186,0.044948 0.3130785,0.1601329 0.3928492,0.3128053 0.1673123,0.3202175 0.024962,0.7174253 -0.3071114,0.8569476 -0.1062347,0.044635 -0.1697077,0.051965 -0.4500001,0.051965 H 3.0378619 l 1.8e-6,0.020045 c 5.8e-6,0.066271 0.059725,0.3786301 0.1128398,0.5902004 0.1331375,0.530325 0.3709274,1.068247 0.6753852,1.527839 0.1981694,0.299146 0.3718211,0.510667 0.6366869,0.775532 0.1986801,0.19868 0.3404026,0.322483 0.5394516,0.471241 0.5616304,0.419731 1.2042858,0.716867 1.8886414,0.873228 0.1444481,0.033 0.4037634,0.07884 0.4513831,0.07979 l 0.032675,6.52e-4 z"
     id="path3" />
</svg>
