<?xml version="1.0" encoding="UTF-8" standalone="no"?>
<svg
   height="16"
   viewBox="0 0 16 16"
   width="16"
   version="1.1"
   id="svg1"
   sodipodi:docname="NNBTParallel.svg"
   inkscape:version="1.4 (86a8ad7, 2024-10-11)"
   xmlns:inkscape="http://www.inkscape.org/namespaces/inkscape"
   xmlns:sodipodi="http://sodipodi.sourceforge.net/DTD/sodipodi-0.dtd"
   xmlns="http://www.w3.org/2000/svg"
   xmlns:svg="http://www.w3.org/2000/svg">
  <defs
     id="defs1" />
  <sodipodi:namedview
     id="namedview1"
     pagecolor="#ffffff"
     bordercolor="#666666"
     borderopacity="1.0"
     inkscape:showpageshadow="2"
     inkscape:pageopacity="0.0"
     inkscape:pagecheckerboard="0"
     inkscape:deskcolor="#d1d1d1"
     inkscape:zoom="64"
     inkscape:cx="12.289062"
     inkscape:cy="7.671875"
     inkscape:window-width="3840"
     inkscape:window-height="2054"
     inkscape:window-x="-11"
     inkscape:window-y="-11"
     inkscape:window-maximized="1"
     inkscape:current-layer="svg1" />
  <path
     style="fill:#ef9f4c;stroke-width:0.0196802"
     d="M 10.301767,7.8458836 C 10.04655,7.7806481 9.8427377,7.6186795 9.731915,7.3930244 9.5284894,6.9788131 9.6345258,6.5717585 10.024052,6.2715598 10.1123,6.2035497 10.264207,6.0863976 10.361624,6.0112218 L 10.538745,5.8745387 6.602706,5.8646986 2.6666667,5.8548585 2.5177772,5.7837526 C 2.2511746,5.65643 2.0714307,5.4193669 2.021797,5.1296075 1.9538627,4.73301 2.1995686,4.3301451 2.6044942,4.1742038 2.6782633,4.1457944 3.0740884,4.1417096 6.6125461,4.1328413 L 10.538745,4.1230012 10.207482,3.8696718 C 9.8704899,3.6119615 9.7919246,3.5306206 9.7108298,3.3554736 9.4677355,2.8304435 9.8110709,2.2226349 10.397546,2.1397749 c 0.174759,-0.024691 0.317666,0.00179 0.491209,0.091006 0.138728,0.071322 2.683965,2.0075369 2.844037,2.163519 0.194543,0.1895723 0.289934,0.4753854 0.245411,0.7353079 -0.02855,0.1666834 -0.121138,0.3550152 -0.227812,0.4633995 -0.06672,0.067787 -2.539635,1.9676224 -2.784016,2.1388391 -0.159407,0.1116826 -0.467202,0.1644959 -0.664608,0.1140372 z"
     id="path2" />
  <path
     style="fill:#ef9f4c;stroke-width:0.0196802"
     d="m 10.334235,13.735171 c -0.4396907,-0.08635 -0.7661689,-0.544522 -0.6948205,-0.975095 0.024462,-0.147623 0.096374,-0.313739 0.1833691,-0.423579 0.03412,-0.04308 0.2085334,-0.190658 0.3875864,-0.327953 l 0.32555,-0.249626 -3.9247865,-0.0098 c -3.7056923,-0.0093 -3.9296944,-0.0118 -4.0127027,-0.04491 -0.2071202,-0.08263 -0.4031154,-0.251907 -0.4908909,-0.423962 -0.2432977,-0.476903 0.00461,-1.067866 0.5145495,-1.226576 0.1121385,-0.0349 0.2777262,-0.0364 4.0130518,-0.0364 2.4141742,0 3.8917578,-0.007 3.8847048,-0.018417 C 10.513586,9.9886744 10.364724,9.8692876 10.189041,9.7334996 9.7787109,9.416348 9.6938364,9.3037228 9.6425858,9.0083744 9.5843479,8.672759 9.7642112,8.305655 10.076549,8.1226488 c 0.252702,-0.1480646 0.606463,-0.1455092 0.852595,0.00616 0.05236,0.032263 0.70618,0.5251303 1.45294,1.0952607 1.456145,1.1117265 1.460609,1.1156385 1.552123,1.3602325 0.117917,0.315161 0.03907,0.668058 -0.201519,0.901941 -0.1732,0.168373 -2.772352,2.139481 -2.885168,2.188013 -0.17817,0.07665 -0.337127,0.09551 -0.513285,0.06092 z"
     id="path3" />
</svg>
