<?xml version="1.0" encoding="UTF-8" standalone="no"?>
<svg
   width="16"
   height="16"
   version="1.1"
   id="svg1"
   sodipodi:docname="NNBTRandomSelector.svg"
   inkscape:version="1.4 (86a8ad7, 2024-10-11)"
   xmlns:inkscape="http://www.inkscape.org/namespaces/inkscape"
   xmlns:sodipodi="http://sodipodi.sourceforge.net/DTD/sodipodi-0.dtd"
   xmlns="http://www.w3.org/2000/svg"
   xmlns:svg="http://www.w3.org/2000/svg">
  <defs
     id="defs1" />
  <sodipodi:namedview
     id="namedview1"
     pagecolor="#ffffff"
     bordercolor="#666666"
     borderopacity="1.0"
     inkscape:showpageshadow="2"
     inkscape:pageopacity="0.0"
     inkscape:pagecheckerboard="0"
     inkscape:deskcolor="#d1d1d1"
     showgrid="false"
     inkscape:zoom="50.8125"
     inkscape:cx="8"
     inkscape:cy="8.895449"
     inkscape:window-width="3840"
     inkscape:window-height="2054"
     inkscape:window-x="-11"
     inkscape:window-y="-11"
     inkscape:window-maximized="1"
     inkscape:current-layer="svg1" />
  <path
     style="fill:#ef9f4c;stroke-width:0.0217441"
     d="M 5.5892994,15.98028 C 4.9611076,15.888013 4.3175006,15.549568 3.8791898,15.081012 3.1699788,14.322864 2.9468219,13.327341 3.2671346,12.350579 c 0.074087,-0.22592 0.1453153,-0.385127 0.2918488,-0.652324 0.1996744,-0.364097 0.255857,-0.531684 0.2587799,-0.771915 0.00211,-0.17307 -0.00466,-0.210035 -0.058511,-0.319695 C 3.6821958,10.449727 3.5235609,10.305724 3.3223633,10.210052 3.0342543,10.073052 2.7781178,10.005486 2.0045114,9.8624161 1.3686077,9.744812 1.1849504,9.696552 1.0136666,9.6020491 0.76341045,9.4639749 0.72310829,9.3007565 0.87355168,9.0346025 1.052865,8.7173738 1.1531771,8.5068142 1.2084428,8.3316507 1.3746733,7.8047862 1.3715013,7.1410508 1.1993844,6.4361816 1.1118815,6.0778322 1.0433675,5.8650526 0.79329683,5.1750234 0.54494445,4.4897351 0.46361116,4.2168862 0.44655581,4.0118099 0.42033762,3.6965597 0.5157717,3.5566509 0.83097008,3.4482483 1.0855624,3.360689 1.4320409,3.2120625 1.5721178,3.1303227 1.7389727,3.0329569 1.8422718,2.9256386 1.9410603,2.7470256 2.101063,2.4577348 2.3320527,2.2926888 2.9563999,2.0215473 3.483635,1.7925799 3.5758077,1.7088905 3.841152,1.2182247 4.1186983,0.70499578 4.2767674,0.53860244 4.6681646,0.34766039 5.1815221,0.09722038 5.8061025,1.3479818e-4 6.9047653,0 c 0.6851634,-8.4078665e-5 3.3821997,0.14777724 3.7647727,0.20639846 0.119593,0.0183255 0.452278,0.0579716 0.739299,0.0881025 1.183856,0.12428091 1.708242,0.25335508 2.075277,0.51081599 0.339438,0.23810235 0.424646,0.53852115 0.281149,0.99125905 -0.04665,0.1471961 -0.06886,0.2625252 -0.07067,0.366888 -0.0045,0.2634732 0.07282,0.352369 0.60621,0.6965267 0.536583,0.3462217 0.857494,0.6241032 0.946032,0.8191832 0.05423,0.1194949 0.05441,0.2842479 4.56e-4,0.4031307 -0.06748,0.1486669 -0.15335,0.2604183 -0.456175,0.5936905 -0.477045,0.525007 -0.626111,0.7910502 -0.648012,1.1565337 -0.01455,0.242791 0.02966,0.4379898 0.158868,0.701501 0.165423,0.3373631 0.45352,0.6784909 1.022986,1.211287 0.175759,0.1644422 0.234405,0.2678063 0.232566,0.4099026 -0.0036,0.2852207 -0.256799,0.5232356 -1.224105,1.1511245 -0.821988,0.5335615 -1.074527,0.7229821 -1.40584,1.0544711 -0.262029,0.262168 -0.451319,0.538939 -0.552931,0.808471 -0.07021,0.186265 -0.07236,0.201573 -0.07241,0.518098 -5.5e-5,0.311051 0.0032,0.335731 0.07052,0.532731 0.0906,0.265163 0.106455,0.452814 0.05968,0.706683 -0.161019,0.87405 -0.718884,1.627184 -1.205292,1.627184 -0.231203,0 -0.398808,-0.110155 -0.68643,-0.451161 -0.144243,-0.171011 -0.270241,-0.229655 -0.494034,-0.229942 -0.4606697,-5.88e-4 -0.9301112,0.279764 -1.9703128,1.176679 -0.2241368,0.193262 -0.4760152,0.399824 -0.55973,0.459027 -0.3206893,0.226788 -0.7410308,0.399899 -1.1204189,0.461426 -0.2181237,0.03538 -0.6026886,0.04027 -0.8069245,0.01032 z M 8.7234407,12.144011 V 11.024188 H 7.6036192 6.4837977 v 1.119823 1.119821 h 1.1198215 1.1198215 z m 0.00581,-2.3429287 C 8.7522852,9.5008071 8.9113678,9.1999569 9.1756269,8.9569215 9.2558042,8.8831837 9.4881237,8.7020922 9.6918925,8.5544961 10.346714,8.0801883 10.584076,7.8611452 10.857735,7.4786345 11.280589,6.8875815 11.533711,5.9273596 11.46627,5.1701479 11.402906,4.4587315 11.201472,3.8604557 10.851261,3.3435287 10.65222,3.0497345 10.231672,2.6357828 9.9302382,2.43695 9.2429117,1.9835736 8.4772716,1.7611984 7.6036192,1.7611984 6.7299669,1.7611984 5.9643268,1.9835736 5.2769996,2.43695 4.9755656,2.6357828 4.5550187,3.0497345 4.3559773,3.3435287 4.1016671,3.7189018 3.9026665,4.1979841 3.8119815,4.6531648 3.767907,4.8743925 3.7223512,5.2748495 3.7223141,5.4413886 l -1.82e-5,0.08154 H 4.8421174 5.9619389 L 5.9623165,5.4196441 C 5.9629487,5.2467753 6.0216536,5.02162 6.1168073,4.8271176 6.244473,4.5661579 6.5033547,4.3092428 6.7690695,4.1798109 7.1213272,4.0082232 7.5316239,3.946385 7.8960095,4.0099631 8.3168036,4.0833837 8.5508604,4.1990693 8.823403,4.4683399 8.9629321,4.6061936 9.01829,4.680648 9.09016,4.8271176 9.2501109,5.1530939 9.2880692,5.4970203 9.1936241,5.7645652 9.0853817,6.0711955 8.9103778,6.2707373 8.313131,6.768516 7.4463116,7.4909709 7.132737,7.8440355 6.8508966,8.4148955 6.6674234,8.7865155 6.5545129,9.1990508 6.5065767,9.6729215 6.494048,9.7967712 6.4837978,9.9117431 6.4837978,9.9284144 c 0,0.02553 0.1762935,0.030316 1.116683,0.030316 h 1.116683 z"
     id="path2" />
</svg>
