<?xml version="1.0" encoding="UTF-8" standalone="no"?>
<svg
   height="16"
   viewBox="0 0 16 16"
   width="16"
   version="1.1"
   id="svg1"
   sodipodi:docname="NNBTSequence.svg"
   inkscape:version="1.4 (86a8ad7, 2024-10-11)"
   xmlns:inkscape="http://www.inkscape.org/namespaces/inkscape"
   xmlns:sodipodi="http://sodipodi.sourceforge.net/DTD/sodipodi-0.dtd"
   xmlns="http://www.w3.org/2000/svg"
   xmlns:svg="http://www.w3.org/2000/svg">
  <defs
     id="defs1" />
  <sodipodi:namedview
     id="namedview1"
     pagecolor="#ffffff"
     bordercolor="#000000"
     borderopacity="0.25"
     inkscape:showpageshadow="2"
     inkscape:pageopacity="0.0"
     inkscape:pagecheckerboard="0"
     inkscape:deskcolor="#d1d1d1"
     inkscape:zoom="79.372736"
     inkscape:cx="5.6253573"
     inkscape:cy="7.6096658"
     inkscape:window-width="3840"
     inkscape:window-height="2054"
     inkscape:window-x="-11"
     inkscape:window-y="-11"
     inkscape:window-maximized="1"
     inkscape:current-layer="svg1" />
  <path
     style="fill:#ef9f4c;stroke-width:0.0125988"
     d="M 7.4899774,15.966354 C 7.1256677,15.916909 6.7465216,15.713816 6.5121311,15.442561 6.0117838,14.863519 5.9771412,14.069322 6.4247749,13.439881 6.4565307,13.395228 7.2980847,12.542574 8.3645855,11.474486 L 10.248307,9.5879605 6.4564749,9.5845195 2.6646429,9.5810784 2.5575533,9.5525386 C 2.2385814,9.4675312 2.0014072,9.3347099 1.7886223,9.121925 1.4844695,8.8177722 1.3228724,8.4285871 1.3228724,8.0002282 c 0,-0.4281667 0.1625427,-0.8198945 0.4653931,-1.1215974 C 1.9918253,6.6758424 2.2363176,6.5350647 2.5168964,6.4590883 l 0.1477465,-0.040008 3.7918701,-0.00329 3.79187,-0.00329 L 8.3761525,4.5385694 C 7.0582143,3.2194373 6.4805362,2.632938 6.4249321,2.5575533 6.2745152,2.3536272 6.157732,2.063926 6.1236477,1.8101636 6.0353977,1.1531323 6.3990619,0.47859334 6.9977882,0.1887724 7.1536544,0.11332349 7.2518687,0.08019111 7.4116817,0.04914643 7.5638182,0.01959295 7.8134051,0.01736141 7.9671921,0.04417963 c 0.2252346,0.03927763 0.4648584,0.13755803 0.6484892,0.2659744 0.094337,0.0659716 6.6285657,6.58672297 6.7271967,6.71332177 0.322648,0.4141373 0.420734,0.9667649 0.259861,1.4641013 -0.04601,0.1422542 -0.130327,0.3093833 -0.218116,0.4323623 -0.05894,0.082562 -0.8347,0.8648813 -3.387104,3.4157306 -3.5542775,3.552112 -3.364426,3.368838 -3.6130279,3.487841 -0.2208183,0.105703 -0.4379108,0.152756 -0.6914338,0.14986 -0.090906,-10e-4 -0.1822919,-0.0042 -0.2030799,-0.007 z"
     id="path2" />
</svg>
