<?xml version="1.0" encoding="UTF-8" standalone="no"?>
<svg
   height="16"
   viewBox="0 0 16 16"
   width="16"
   version="1.1"
   id="svg2"
   sodipodi:docname="NNBTRunNQSQuery.svg"
   inkscape:version="1.4 (86a8ad7, 2024-10-11)"
   xmlns:inkscape="http://www.inkscape.org/namespaces/inkscape"
   xmlns:sodipodi="http://sodipodi.sourceforge.net/DTD/sodipodi-0.dtd"
   xmlns="http://www.w3.org/2000/svg"
   xmlns:svg="http://www.w3.org/2000/svg">
  <defs
     id="defs2" />
  <sodipodi:namedview
     id="namedview2"
     pagecolor="#ffffff"
     bordercolor="#000000"
     borderopacity="0.25"
     inkscape:showpageshadow="2"
     inkscape:pageopacity="0.0"
     inkscape:pagecheckerboard="0"
     inkscape:deskcolor="#d1d1d1"
     inkscape:zoom="79.372736"
     inkscape:cx="8.6490656"
     inkscape:cy="7.5466719"
     inkscape:window-width="3840"
     inkscape:window-height="2054"
     inkscape:window-x="-11"
     inkscape:window-y="-11"
     inkscape:window-maximized="1"
     inkscape:current-layer="svg2" />
  <path
     style="fill:#ef9f4c;stroke-width:0.0166002"
     d="M 11.009418,12.864201 C 9.5624464,11.417716 8.3819813,10.231183 8.3861611,10.227463 8.3964659,10.218192 10.189878,9.0301441 10.421052,8.8793361 l 0.184343,-0.1202576 2.443119,2.4423045 2.443119,2.442304 -0.92568,0.925244 -0.925678,0.925243 z"
     id="path7" />
  <path
     id="path9"
     style="display:inline;fill:#ef9f4c;fill-opacity:1;stroke-width:1.12407"
     d="M 5.7253271,0.00912084 A 5.7355552,5.7355552 0 0 0 -0.0090479,5.7434958 5.7355552,5.7355552 0 0 0 5.7253271,11.479824 5.7355552,5.7355552 0 0 0 11.461655,5.7434958 5.7355552,5.7355552 0 0 0 5.7253271,0.00912084 Z m 0,2.28320316 A 3.45245,3.45245 0 0 1 9.1784521,5.7434958 3.45245,3.45245 0 0 1 5.7253271,9.1966208 3.45245,3.45245 0 0 1 2.2741552,5.7434958 3.45245,3.45245 0 0 1 5.7253271,2.292324 Z" />
</svg>
