<?xml version="1.0" encoding="UTF-8" standalone="no"?>
<svg
   height="16"
   viewBox="0 0 16 16"
   width="16"
   version="1.1"
   id="svg1"
   sodipodi:docname="NNConsideration.svg"
   inkscape:version="1.4 (86a8ad7, 2024-10-11)"
   xmlns:inkscape="http://www.inkscape.org/namespaces/inkscape"
   xmlns:sodipodi="http://sodipodi.sourceforge.net/DTD/sodipodi-0.dtd"
   xmlns="http://www.w3.org/2000/svg"
   xmlns:svg="http://www.w3.org/2000/svg">
  <defs
     id="defs1" />
  <sodipodi:namedview
     id="namedview1"
     pagecolor="#ffffff"
     bordercolor="#000000"
     borderopacity="0.25"
     inkscape:showpageshadow="2"
     inkscape:pageopacity="0.0"
     inkscape:pagecheckerboard="0"
     inkscape:deskcolor="#d1d1d1"
     inkscape:zoom="79.372736"
     inkscape:cx="5.7450457"
     inkscape:cy="9.0963224"
     inkscape:window-width="3840"
     inkscape:window-height="2054"
     inkscape:window-x="-11"
     inkscape:window-y="-11"
     inkscape:window-maximized="1"
     inkscape:current-layer="svg1" />
  <path
     d="M 5.7142661,2.2857034 A 1.1428593,1.1428593 0 0 0 4.9062646,2.6205612 L 0.33482727,7.1919985 a 1.1428593,1.1428593 0 0 0 0,1.616003 L 4.9062646,13.379439 a 1.1428593,1.1428593 0 0 0 0.8080015,0.334858 H 14.857141 A 1.1428593,1.1428593 0 0 0 16,12.571437 V 3.4285627 A 1.1428593,1.1428593 0 0 0 14.857141,2.2857034 Z M 4.5714068,6.8571407 a 1.1428593,1.1428593 0 0 1 0,2.2857186 1.1428593,1.1428593 0 0 1 0,-2.2857186 z"
     fill="#775599"
     id="path1"
     style="stroke-width:1.14286;fill:#ef9f4c;fill-opacity:1" />
</svg>
