<?xml version="1.0" encoding="UTF-8" standalone="no"?>
<svg
   height="16"
   viewBox="0 0 16 16"
   width="16"
   version="1.1"
   id="svg1"
   sodipodi:docname="NNDefault.svg"
   inkscape:version="1.4 (86a8ad7, 2024-10-11)"
   xmlns:inkscape="http://www.inkscape.org/namespaces/inkscape"
   xmlns:sodipodi="http://sodipodi.sourceforge.net/DTD/sodipodi-0.dtd"
   xmlns="http://www.w3.org/2000/svg"
   xmlns:svg="http://www.w3.org/2000/svg">
  <defs
     id="defs1" />
  <sodipodi:namedview
     id="namedview1"
     pagecolor="#ffffff"
     bordercolor="#000000"
     borderopacity="0.25"
     inkscape:showpageshadow="2"
     inkscape:pageopacity="0.0"
     inkscape:pagecheckerboard="0"
     inkscape:deskcolor="#d1d1d1"
     inkscape:zoom="78.223688"
     inkscape:cx="8.8464252"
     inkscape:cy="9.29386"
     inkscape:window-width="3840"
     inkscape:window-height="2054"
     inkscape:window-x="-11"
     inkscape:window-y="-11"
     inkscape:window-maximized="1"
     inkscape:current-layer="svg1" />
  <path
     style="fill:#ef9f4c;stroke-width:0.0127839"
     d="M 7.5105127,15.979704 C 6.0582435,15.87599 4.7591544,15.438265 3.5757508,14.653895 1.8666554,13.521092 0.64948767,11.749431 0.19936429,9.7393616 0.11641654,9.3689504 0.05504309,8.9494334 0.02571667,8.5523966 0.00822604,8.3155991 0.0080094,7.6935332 0.0253338,7.4529854 0.14706545,5.7627508 0.78519993,4.1750503 1.8628018,2.8813016 3.31329,1.139873 5.4631298,0.08690659 7.7150543,0.01493684 9.092453,-0.02908375 10.364326,0.24827504 11.582169,0.8582428 c 1.745311,0.8741547 3.100293,2.3459991 3.83505,4.1658108 0.70167,1.7378628 0.761653,3.7145967 0.166805,5.4970564 -0.159005,0.476454 -0.435719,1.089089 -0.678467,1.502102 -0.706664,1.202314 -1.680031,2.175681 -2.882345,2.882345 -0.245151,0.144088 -0.77072,0.401002 -1.045009,0.510833 -0.71857,0.287729 -1.4597513,0.466415 -2.2596163,0.544756 -0.2449779,0.02399 -0.9749465,0.03521 -1.208074,0.01856 z M 8.6740748,13.296881 C 9.511653,13.181925 10.232463,12.916104 10.921954,12.467909 11.534153,12.069956 12.069956,11.534153 12.467909,10.921954 12.915661,10.233146 13.183095,9.5077906 13.29669,8.6740748 13.33011,8.4288209 13.3436,7.8366392 13.32174,7.574432 13.22515,6.4157793 12.773597,5.3458763 12.017112,4.4832734 10.402927,2.6426542 7.7444858,2.1333167 5.5673673,3.2475503 4.6241405,3.7302871 3.8541316,4.4733635 3.3356838,5.4011772 2.8522266,6.2663718 2.6141883,7.2881136 2.6692819,8.2616031 c 0.018432,0.3256825 0.040827,0.5064378 0.098596,0.7957556 0.4016667,2.0116553 1.9503214,3.6327603 3.9372527,4.1214473 0.5024567,0.12358 0.7841137,0.154314 1.3614801,0.148564 0.3314879,-0.0033 0.4542854,-0.0095 0.6074646,-0.03049 z"
     id="path1" />
</svg>
