<?xml version="1.0" encoding="UTF-8" standalone="no"?>
<svg
   height="16"
   viewBox="0 0 16 16"
   width="16"
   version="1.1"
   id="svg1"
   sodipodi:docname="NNDistanceVector3Sensor.svg"
   inkscape:version="1.4 (86a8ad7, 2024-10-11)"
   xmlns:inkscape="http://www.inkscape.org/namespaces/inkscape"
   xmlns:sodipodi="http://sodipodi.sourceforge.net/DTD/sodipodi-0.dtd"
   xmlns="http://www.w3.org/2000/svg"
   xmlns:svg="http://www.w3.org/2000/svg">
  <defs
     id="defs1" />
  <sodipodi:namedview
     id="namedview1"
     pagecolor="#ffffff"
     bordercolor="#000000"
     borderopacity="0.25"
     inkscape:showpageshadow="2"
     inkscape:pageopacity="0.0"
     inkscape:pagecheckerboard="0"
     inkscape:deskcolor="#d1d1d1"
     inkscape:zoom="50.3125"
     inkscape:cx="8.0099379"
     inkscape:cy="8.0099379"
     inkscape:window-width="3840"
     inkscape:window-height="2054"
     inkscape:window-x="-11"
     inkscape:window-y="-11"
     inkscape:window-maximized="1"
     inkscape:current-layer="svg1" />
  <path
     d="m 0,4.3670806 c 0,1.523809 2.2857143,1.523809 2.2857143,0 V 2.0813664 C 2.2857143,0.55755745 0,0.55755745 0,2.0813664 Z M 6.8571429,3.2242235 c 0,1.5238089 2.2857142,1.5238089 2.2857142,0 0,-1.5238089 -2.2857142,-1.5238089 -2.2857142,0 z m 6.8571431,1.1428571 c 0,1.523809 2.285714,1.523809 2.285714,0 V 2.0813664 c 0,-1.52380895 -2.285714,-1.52380895 -2.285714,0 z"
     fill="#775599"
     id="path1"
     sodipodi:nodetypes="sssssssssssss"
     style="stroke-width:1.14286;fill:#ef9f4c;fill-opacity:1" />
  <path
     d="m 11.428571,5.5099378 v 2.2857143 h 2.285715 a 1.1428571,1.1428571 0 0 1 -1.142857,1.1428571 v 2.2857148 a 1.1428571,1.1428571 0 0 1 0,2.285714 h -1.142858 v 2.285714 h 1.142858 A 3.4285714,3.4285714 0 0 0 15.122286,10.081366 3.4285714,3.4285714 0 0 0 16,7.7956521 V 5.5099378 Z M 0,7.7956521 V 14.652795 H 2.2857143 A 3.4285714,3.4285714 0 0 0 5.7142857,11.224224 V 7.7956521 H 3.4285714 V 11.224224 A 1.1428571,1.1428571 0 0 1 2.2857143,12.367081 V 7.7956521 Z M 10.285714,14.652795 V 12.367081 H 9.1428571 a 1.1428575,1.1428575 0 0 1 0,-2.285715 H 10.285714 V 7.7956521 H 9.1428571 a 3.4285716,3.4285716 0 0 0 0,6.8571429 z"
     fill="#de66f0"
     id="path1-2"
     style="fill:#ef9f4c;fill-opacity:1;stroke-width:1.14286" />
</svg>
