<?xml version="1.0" encoding="UTF-8" standalone="no"?>
<svg
   height="16"
   viewBox="0 0 16 16"
   width="16"
   version="1.1"
   id="svg2"
   sodipodi:docname="NNFloatRangeSensor.svg"
   inkscape:version="1.4 (86a8ad7, 2024-10-11)"
   xmlns:inkscape="http://www.inkscape.org/namespaces/inkscape"
   xmlns:sodipodi="http://sodipodi.sourceforge.net/DTD/sodipodi-0.dtd"
   xmlns="http://www.w3.org/2000/svg"
   xmlns:svg="http://www.w3.org/2000/svg">
  <defs
     id="defs2" />
  <sodipodi:namedview
     id="namedview2"
     pagecolor="#ffffff"
     bordercolor="#000000"
     borderopacity="0.25"
     inkscape:showpageshadow="2"
     inkscape:pageopacity="0.0"
     inkscape:pagecheckerboard="0"
     inkscape:deskcolor="#d1d1d1"
     inkscape:zoom="78.223688"
     inkscape:cx="6.7498735"
     inkscape:cy="9.2171569"
     inkscape:window-width="3840"
     inkscape:window-height="2054"
     inkscape:window-x="-11"
     inkscape:window-y="-11"
     inkscape:window-maximized="1"
     inkscape:current-layer="svg2" />
  <path
     style="fill:#ef9f4c;stroke-width:0.0127839"
     d="M 7.7741571,15.978603 C 7.6829042,15.964629 2.5851039,14.693096 2.4187588,14.642818 1.9492673,14.500913 1.5610465,14.135831 1.3864877,13.672071 1.3502326,13.57575 0.04712077,8.374109 0.02578133,8.2405296 0.01809692,8.192427 0.01185162,8.079301 0.01190289,7.9891386 0.01235743,7.1898951 0.61529937,6.5165012 1.4186722,6.4179925 c 0.1492549,-0.018301 0.2488325,-0.016672 0.4077779,0.00667 0.6011431,0.088292 1.0996299,0.5088015 1.2857458,1.084619 0.022944,0.070987 0.2759191,1.066876 0.562166,2.2130871 l 0.5204489,2.0840204 2.1180697,0.528996 c 1.1649381,0.290948 2.1583386,0.5432 2.2075565,0.560559 0.2313139,0.08158 0.4286356,0.207123 0.6072329,0.386331 0.2337764,0.234576 0.3766147,0.507974 0.4399568,0.842094 0.026487,0.139718 0.02657,0.413141 1.665e-4,0.552328 -0.1229423,0.648099 -0.6035542,1.143476 -1.2455059,1.283768 -0.1151786,0.02517 -0.4334271,0.0357 -0.5481302,0.01813 z"
     id="path2" />
  <path
     style="fill:#ef9f4c;stroke-width:0.0127839"
     d="M 14.097723,9.5625738 C 13.529542,9.442772 13.08458,9.0569445 12.895862,8.520437 12.878549,8.4712191 12.626336,7.4778186 12.335388,6.3128805 L 11.806392,4.1948108 9.7223715,3.6743619 C 8.5761604,3.388115 7.5802711,3.1351402 7.5092844,3.1121959 7.2638444,3.0328647 7.0648591,2.9104784 6.8769389,2.7232704 6.6313689,2.4786309 6.4748772,2.1683211 6.4246654,1.8264501 6.4013205,1.6675047 6.3996911,1.5679271 6.4179925,1.4186722 6.5231641,0.560961 7.2808589,-0.05795348 8.1363672,0.015037 c 0.1190704,0.01015887 0.5349404,0.11065649 2.7740958,0.67037769 1.448715,0.36213501 2.677008,0.67285001 2.72954,0.69047751 0.456805,0.1532864 0.842396,0.5464479 0.995148,1.014688 0.05414,0.1659455 1.330549,5.3020624 1.345462,5.4139611 0.0182,0.1365719 0.0089,0.3822676 -0.01929,0.511354 -0.142005,0.6495269 -0.633348,1.1283528 -1.284625,1.2518979 -0.147768,0.028031 -0.433496,0.025455 -0.578977,-0.00522 z"
     id="path3" />
</svg>
