<?xml version="1.0" encoding="UTF-8" standalone="no"?>
<svg
   height="16"
   viewBox="0 0 16 16"
   width="16"
   version="1.1"
   id="svg1"
   sodipodi:docname="NNPointGridSearchSpace.svg"
   inkscape:version="1.4 (86a8ad7, 2024-10-11)"
   xmlns:inkscape="http://www.inkscape.org/namespaces/inkscape"
   xmlns:sodipodi="http://sodipodi.sourceforge.net/DTD/sodipodi-0.dtd"
   xmlns="http://www.w3.org/2000/svg"
   xmlns:svg="http://www.w3.org/2000/svg">
  <defs
     id="defs1" />
  <sodipodi:namedview
     id="namedview1"
     pagecolor="#ffffff"
     bordercolor="#000000"
     borderopacity="0.25"
     inkscape:showpageshadow="2"
     inkscape:pageopacity="0.0"
     inkscape:pagecheckerboard="0"
     inkscape:deskcolor="#d1d1d1"
     inkscape:zoom="110.625"
     inkscape:cx="8"
     inkscape:cy="8"
     inkscape:window-width="3840"
     inkscape:window-height="2054"
     inkscape:window-x="-11"
     inkscape:window-y="-11"
     inkscape:window-maximized="1"
     inkscape:current-layer="svg1" />
  <path
     d="M 2.2857143,0 A 2.2857143,2.2857143 0 0 0 0,2.2857143 V 13.714286 A 2.2857143,2.2857143 0 0 0 2.2857143,16 H 13.714286 A 2.2857143,2.2857143 0 0 0 16,13.714286 V 2.2857143 A 2.2857143,2.2857143 0 0 0 13.714286,0 Z m 0,2.2857143 H 13.714286 V 13.714286 H 2.2857143 Z M 3.4285714,3.4285714 V 5.7142857 H 5.7142857 V 3.4285714 Z m 3.4285715,0 V 5.7142857 H 9.1428571 V 3.4285714 Z m 3.4285711,0 v 2.2857143 h 2.285715 V 3.4285714 Z M 3.4285714,6.8571429 V 9.1428571 H 5.7142857 V 6.8571429 Z m 3.4285715,0 V 9.1428571 H 9.1428571 V 6.8571429 Z m 3.4285711,0 v 2.2857142 h 2.285715 V 6.8571429 Z M 3.4285714,10.285714 v 2.285715 h 2.2857143 v -2.285715 z m 3.4285715,0 v 2.285715 h 2.2857142 v -2.285715 z m 3.4285711,0 v 2.285715 h 2.285715 v -2.285715 z"
     fill="#775599"
     id="path1"
     style="stroke-width:1.14286;fill:#ef9f4c;fill-opacity:1" />
</svg>
