<?xml version="1.0" encoding="UTF-8" standalone="no"?>
<svg
   height="16"
   viewBox="0 0 16 16"
   width="16"
   version="1.1"
   id="svg1"
   sodipodi:docname="NNSensor.svg"
   inkscape:version="1.4 (86a8ad7, 2024-10-11)"
   xmlns:inkscape="http://www.inkscape.org/namespaces/inkscape"
   xmlns:sodipodi="http://sodipodi.sourceforge.net/DTD/sodipodi-0.dtd"
   xmlns="http://www.w3.org/2000/svg"
   xmlns:svg="http://www.w3.org/2000/svg">
  <defs
     id="defs1" />
  <sodipodi:namedview
     id="namedview1"
     pagecolor="#ffffff"
     bordercolor="#000000"
     borderopacity="0.25"
     inkscape:showpageshadow="2"
     inkscape:pageopacity="0.0"
     inkscape:pagecheckerboard="0"
     inkscape:deskcolor="#d1d1d1"
     inkscape:zoom="78.223688"
     inkscape:cx="5.075189"
     inkscape:cy="9.6262401"
     inkscape:window-width="3840"
     inkscape:window-height="2054"
     inkscape:window-x="-11"
     inkscape:window-y="-11"
     inkscape:window-maximized="1"
     inkscape:current-layer="svg1" />
  <path
     d="m 2.6666667,0 a 1.3333333,1.3333333 0 0 0 0,2.6666667 A 10.666667,10.666667 0 0 1 13.333333,13.333333 1.3333335,1.3333335 0 0 0 16,13.333333 13.333333,13.333333 0 0 0 2.6666667,0 Z m 0,5.3333333 A 1.3333334,1.3333334 0 0 0 2.6666667,8 5.3333333,5.3333333 0 0 1 8,13.333333 a 1.3333335,1.3333335 0 0 0 2.666667,0 8,8 0 0 0 -8.0000003,-7.9999997 z m 0,5.3333337 a 2.6666667,2.6666667 0 0 0 0,5.333333 2.6666667,2.6666667 0 0 0 0,-5.333333 z"
     fill="#775599"
     id="path1"
     style="stroke-width:1.33333;fill:#ef9f4c;fill-opacity:1" />
</svg>
