<?xml version="1.0" encoding="UTF-8" standalone="no"?>
<svg
   height="14"
   viewBox="0 0 14 14"
   width="14"
   version="1.1"
   id="svg1"
   sodipodi:docname="NNSearchCriteria.svg"
   inkscape:version="1.4 (86a8ad7, 2024-10-11)"
   xmlns:inkscape="http://www.inkscape.org/namespaces/inkscape"
   xmlns:sodipodi="http://sodipodi.sourceforge.net/DTD/sodipodi-0.dtd"
   xmlns="http://www.w3.org/2000/svg"
   xmlns:svg="http://www.w3.org/2000/svg">
  <defs
     id="defs1" />
  <sodipodi:namedview
     id="namedview1"
     pagecolor="#ffffff"
     bordercolor="#000000"
     borderopacity="0.25"
     inkscape:showpageshadow="2"
     inkscape:pageopacity="0.0"
     inkscape:pagecheckerboard="0"
     inkscape:deskcolor="#d1d1d1"
     inkscape:zoom="89.3985"
     inkscape:cx="6.6332209"
     inkscape:cy="7.7294362"
     inkscape:window-width="3840"
     inkscape:window-height="2054"
     inkscape:window-x="-11"
     inkscape:window-y="-11"
     inkscape:window-maximized="1"
     inkscape:current-layer="svg1" />
  <path
     style="fill:#ef9f4c;stroke-width:0.0111859"
     d="M 4.4430466,13.970982 C 3.6521066,13.916693 2.8976501,13.593492 2.321068,13.061951 1.6332913,12.427901 1.2339697,11.575642 1.1896491,10.647201 l -0.00739,-0.154855 h 1.1579173 1.1579174 l 0.00784,0.08651 c 0.04872,0.537647 0.4263296,0.961371 0.9460459,1.061579 0.1196237,0.02306 0.3402711,0.02041 0.4644561,-0.0056 0.4007042,-0.08388 0.7293866,-0.376283 0.8630263,-0.767777 0.059809,-0.175208 0.059565,-0.169128 0.059565,-1.4891863 V 8.1544992 H 4.6756937 3.5123632 V 6.9967617 5.8390241 h 1.1626974 1.1626975 l 0.00443,-1.3059503 c 0.00389,-1.1484342 0.0067,-1.3221404 0.023289,-1.4401807 0.047112,-0.3352351 0.108656,-0.5771723 0.216256,-0.8501262 0.605883,-1.53697204 2.182035,-2.43758209 3.80658,-2.17507205 0.5459909,0.08822668 1.0632259,0.30776754 1.5186059,0.64457393 0.143688,0.10627348 0.275905,0.22288151 0.424275,0.37418722 0.46118,0.4703024 0.783496,1.083228 0.914279,1.7386188 0.05922,0.29679 0.064,0.373689 0.07023,1.1319267 l 0.0058,0.7075063 h -1.164102 -1.164103 l -0.0039,-0.6851346 C 10.484933,3.1978466 10.488133,3.2268095 10.381575,3.0034061 10.229644,2.6848732 9.9470807,2.4559763 9.5974764,2.3682283 9.5193887,2.348629 9.4704113,2.3444743 9.3234226,2.3449812 9.166672,2.3455217 9.1306582,2.3492668 9.0333885,2.3751428 8.5611234,2.5007753 8.2210711,2.8962024 8.1660455,3.3837257 c -0.00698,0.061817 -0.011398,0.555068 -0.011455,1.2779856 l -9.17e-5,1.1773128 H 9.3178297 10.48116 V 6.9967617 8.1544992 H 9.3178297 8.1544992 l -9.4e-6,1.2667998 c -5.7e-6,0.772647 -0.00446,1.314797 -0.011413,1.389844 -0.1419195,1.531327 -1.2795134,2.796346 -2.7860073,3.098075 -0.2802513,0.05613 -0.6409765,0.08051 -0.9140232,0.06176 z"
     id="path2" />
</svg>
