<?xml version="1.0" encoding="UTF-8" standalone="no"?>
<svg
   height="16"
   width="16"
   viewBox="0 0 16 16"
   version="1.1"
   id="svg1"
   sodipodi:docname="NNStateTreeNode.svg"
   inkscape:version="1.4 (86a8ad7, 2024-10-11)"
   xmlns:inkscape="http://www.inkscape.org/namespaces/inkscape"
   xmlns:sodipodi="http://sodipodi.sourceforge.net/DTD/sodipodi-0.dtd"
   xmlns="http://www.w3.org/2000/svg"
   xmlns:svg="http://www.w3.org/2000/svg">
  <defs
     id="defs1" />
  <sodipodi:namedview
     id="namedview1"
     pagecolor="#ffffff"
     bordercolor="#000000"
     borderopacity="0.25"
     inkscape:showpageshadow="2"
     inkscape:pageopacity="0.0"
     inkscape:pagecheckerboard="0"
     inkscape:deskcolor="#d1d1d1"
     inkscape:zoom="78.223688"
     inkscape:cx="5.2158114"
     inkscape:cy="9.0126152"
     inkscape:window-width="3840"
     inkscape:window-height="2054"
     inkscape:window-x="-11"
     inkscape:window-y="-11"
     inkscape:window-maximized="1"
     inkscape:current-layer="svg1" />
  <path
     d="m 11.428571,0 a 1.1428571,1.1428571 0 0 0 -1.142857,1.1428571 v 3.4285715 a 1.1428571,1.1428571 0 0 0 1.142857,1.1428571 h 3.428572 A 1.1428571,1.1428571 0 0 0 16,4.5714286 V 1.1428571 A 1.1428571,1.1428571 0 0 0 14.857143,0 Z M 6.5508571,4.5714286 a 2.2857143,2.2857143 0 0 1 0.3062858,1.1428571 v 1.2765714 l 2.592,-1.2765714 A 2.2857143,2.2857143 0 0 1 9.1428571,4.5714286 V 3.2948571 Z m -5.408,0 A 1.1428571,1.1428571 0 0 0 0,5.7142857 v 4.5714283 a 1.1428571,1.1428571 0 0 0 1.1428571,1.142857 H 4.5714286 A 1.1428571,1.1428571 0 0 0 5.7142857,10.285714 V 5.7142857 A 1.1428571,1.1428571 0 0 0 4.5714286,4.5714286 Z m 5.7142858,4.4377143 v 1.2765711 a 2.2857143,2.2857143 0 0 1 -0.3062858,1.142857 l 2.592,1.276572 v -1.276572 a 2.2857143,2.2857143 0 0 1 0.3062858,-1.142857 z m 4.5714281,1.2765711 a 1.1428571,1.1428571 0 0 0 -1.142857,1.142857 v 3.428572 A 1.1428571,1.1428571 0 0 0 11.428571,16 h 3.428572 A 1.1428571,1.1428571 0 0 0 16,14.857143 v -3.428572 a 1.1428571,1.1428571 0 0 0 -1.142857,-1.142857 z"
     fill="#775599"
     id="path1"
     style="stroke-width:1.14286;fill:#ef9f4c;fill-opacity:1" />
</svg>
